<?xml version="1.0" encoding="utf-8" standalone="no"?>
<!DOCTYPE svg PUBLIC "-//W3C//DTD SVG 1.1//EN"
  "http://www.w3.org/Graphics/SVG/1.1/DTD/svg11.dtd">
<svg xmlns:xlink="http://www.w3.org/1999/xlink" width="460.8pt" height="345.6pt" viewBox="0 0 460.8 345.6" xmlns="http://www.w3.org/2000/svg" version="1.1">
 <metadata>
  <rdf:RDF xmlns:dc="http://purl.org/dc/elements/1.1/" xmlns:cc="http://creativecommons.org/ns#" xmlns:rdf="http://www.w3.org/1999/02/22-rdf-syntax-ns#">
   <cc:Work>
    <dc:type rdf:resource="http://purl.org/dc/dcmitype/StillImage"/>
    <dc:date>2023-11-18T23:29:02.702402</dc:date>
    <dc:format>image/svg+xml</dc:format>
    <dc:creator>
     <cc:Agent>
      <dc:title>Matplotlib v3.8.1, https://matplotlib.org/</dc:title>
     </cc:Agent>
    </dc:creator>
   </cc:Work>
  </rdf:RDF>
 </metadata>
 <defs>
  <style type="text/css">*{stroke-linejoin: round; stroke-linecap: butt}</style>
 </defs>
 <g id="figure_1">
  <g id="patch_1">
   <path d="M 0 345.6 
L 460.8 345.6 
L 460.8 0 
L 0 0 
z
" style="fill: #ffffff"/>
  </g>
  <g id="axes_1">
   <g id="patch_2">
    <path d="M 342.6048 174.528 
C 342.6048 160.549797 339.851399 146.707514 334.502172 133.793339 
C 329.152945 120.879163 321.311922 109.144242 311.42784 99.26016 
C 301.543758 89.376078 289.808837 81.535055 276.894661 76.185828 
C 263.980486 70.836601 250.138203 68.0832 236.16 68.0832 
C 222.181797 68.0832 208.339514 70.836601 195.425339 76.185828 
C 182.511163 81.535055 170.776242 89.376078 160.89216 99.26016 
C 151.008078 109.144242 143.167055 120.879163 137.817828 133.793339 
C 132.468601 146.707514 129.7152 160.549797 129.7152 174.528 
C 129.7152 188.506203 132.468601 202.348486 137.817828 215.262661 
C 143.167055 228.176837 151.008078 239.911758 160.89216 249.79584 
C 170.776242 259.679922 182.511163 267.520945 195.425339 272.870172 
C 208.339514 278.219399 222.181797 280.9728 236.16 280.9728 
C 250.138203 280.9728 263.980486 278.219399 276.894661 272.870172 
C 289.808837 267.520945 301.543758 259.679922 311.42784 249.79584 
C 321.311922 239.911758 329.152945 228.176837 334.502172 215.262661 
C 339.851399 202.348486 342.6048 188.506203 342.6048 174.528 
M 236.16 174.528 
z
" style="fill: #9fd5dc"/>
   </g>
   <g id="patch_3">
    <path d="M 342.6048 174.528 
C 342.6048 160.549797 339.851399 146.707514 334.502172 133.793339 
C 329.152945 120.879163 321.311922 109.144242 311.42784 99.26016 
C 301.543758 89.376078 289.808837 81.535055 276.894661 76.185828 
C 263.980486 70.836601 250.138203 68.0832 236.16 68.0832 
C 222.181797 68.0832 208.339514 70.836601 195.425339 76.185828 
C 182.511163 81.535055 170.776242 89.376078 160.89216 99.26016 
C 151.008078 109.144242 143.167055 120.879163 137.817828 133.793339 
C 132.468601 146.707514 129.7152 160.549797 129.7152 174.528 
C 129.7152 188.506203 132.468601 202.348486 137.817828 215.262661 
C 143.167055 228.176837 151.008078 239.911758 160.89216 249.79584 
C 170.776242 259.679922 182.511163 267.520945 195.425339 272.870172 
C 208.339514 278.219399 222.181797 280.9728 236.16 280.9728 
C 250.138203 280.9728 263.980486 278.219399 276.894661 272.870172 
C 289.808837 267.520945 301.543758 259.679922 311.42784 249.79584 
C 321.311922 239.911758 329.152945 228.176837 334.502172 215.262661 
C 339.851399 202.348486 342.6048 188.506203 342.6048 174.528 
M 236.16 174.528 
z
" style="fill: #9fd5dc"/>
   </g>
   <g id="patch_4">
    <path d="M 342.6048 174.528 
C 342.6048 160.549797 339.851399 146.707514 334.502172 133.793339 
C 329.152945 120.879163 321.311922 109.144242 311.42784 99.26016 
C 301.543758 89.376078 289.808837 81.535055 276.894661 76.185828 
C 263.980486 70.836601 250.138203 68.0832 236.16 68.0832 
C 222.181797 68.0832 208.339514 70.836601 195.425339 76.185828 
C 182.511163 81.535055 170.776242 89.376078 160.89216 99.26016 
C 151.008078 109.144242 143.167055 120.879163 137.817828 133.793339 
C 132.468601 146.707514 129.7152 160.549797 129.7152 174.528 
C 129.7152 188.506203 132.468601 202.348486 137.817828 215.262661 
C 143.167055 228.176837 151.008078 239.911758 160.89216 249.79584 
C 170.776242 259.679922 182.511163 267.520945 195.425339 272.870172 
C 208.339514 278.219399 222.181797 280.9728 236.16 280.9728 
C 250.138203 280.9728 263.980486 278.219399 276.894661 272.870172 
C 289.808837 267.520945 301.543758 259.679922 311.42784 249.79584 
C 321.311922 239.911758 329.152945 228.176837 334.502172 215.262661 
C 339.851399 202.348486 342.6048 188.506203 342.6048 174.528 
M 236.16 174.528 
z
" style="fill: #9fd5dc"/>
   </g>
   <g id="patch_5">
    <path d="M 342.6048 174.528 
C 342.6048 160.549797 339.851399 146.707514 334.502172 133.793339 
C 329.152945 120.879163 321.311922 109.144242 311.42784 99.26016 
C 301.543758 89.376078 289.808837 81.535055 276.894661 76.185828 
C 263.980486 70.836601 250.138203 68.0832 236.16 68.0832 
C 222.181797 68.0832 208.339514 70.836601 195.425339 76.185828 
C 182.511163 81.535055 170.776242 89.376078 160.89216 99.26016 
C 151.008078 109.144242 143.167055 120.879163 137.817828 133.793339 
C 132.468601 146.707514 129.7152 160.549797 129.7152 174.528 
C 129.7152 188.506203 132.468601 202.348486 137.817828 215.262661 
C 143.167055 228.176837 151.008078 239.911758 160.89216 249.79584 
C 170.776242 259.679922 182.511163 267.520945 195.425339 272.870172 
C 208.339514 278.219399 222.181797 280.9728 236.16 280.9728 
C 250.138203 280.9728 263.980486 278.219399 276.894661 272.870172 
C 289.808837 267.520945 301.543758 259.679922 311.42784 249.79584 
C 321.311922 239.911758 329.152945 228.176837 334.502172 215.262661 
C 339.851399 202.348486 342.6048 188.506203 342.6048 174.528 
M 236.16 174.528 
z
" style="fill: #dec1ab"/>
   </g>
   <g id="patch_6">
    <path d="M 342.6048 174.528 
C 342.6048 160.549797 339.851399 146.707514 334.502172 133.793339 
C 329.152945 120.879163 321.311922 109.144242 311.42784 99.26016 
C 301.543758 89.376078 289.808837 81.535055 276.894661 76.185828 
C 263.980486 70.836601 250.138203 68.0832 236.16 68.0832 
C 222.181797 68.0832 208.339514 70.836601 195.425339 76.185828 
C 182.511163 81.535055 170.776242 89.376078 160.89216 99.26016 
C 151.008078 109.144242 143.167055 120.879163 137.817828 133.793339 
C 132.468601 146.707514 129.7152 160.549797 129.7152 174.528 
C 129.7152 188.506203 132.468601 202.348486 137.817828 215.262661 
C 143.167055 228.176837 151.008078 239.911758 160.89216 249.79584 
C 170.776242 259.679922 182.511163 267.520945 195.425339 272.870172 
C 208.339514 278.219399 222.181797 280.9728 236.16 280.9728 
C 250.138203 280.9728 263.980486 278.219399 276.894661 272.870172 
C 289.808837 267.520945 301.543758 259.679922 311.42784 249.79584 
C 321.311922 239.911758 329.152945 228.176837 334.502172 215.262661 
C 339.851399 202.348486 342.6048 188.506203 342.6048 174.528 
M 236.16 174.528 
z
" style="fill: #dec1ab"/>
   </g>
   <g id="patch_7">
    <path d="M 342.6048 174.528 
C 342.6048 149.132164 333.516308 124.556076 316.992775 105.270813 
C 300.469242 85.985551 277.577389 73.236125 252.481883 69.342014 
C 227.386378 65.447903 201.707328 70.660501 180.11647 84.031491 
C 158.525613 97.40248 142.416803 118.068661 134.720684 142.270278 
L 236.16 174.528 
z
" style="fill: #e4be9e"/>
   </g>
   <g id="patch_8">
    <path d="M 134.720684 142.270278 
C 129.340682 159.188512 128.277672 177.18692 131.62879 194.620826 
C 134.979908 212.054732 142.639874 228.376423 153.908729 242.09444 
C 165.177583 255.812457 179.701297 266.495828 196.152709 273.168317 
C 212.604121 279.840806 230.466384 282.292787 248.107265 280.3002 
L 236.16 174.528 
z
" style="fill: #31271c"/>
   </g>
   <g id="patch_9">
    <path d="M 248.107265 280.3002 
C 272.376646 277.558906 294.97843 266.546505 312.094313 249.123413 
C 329.210195 231.70032 339.818818 208.906226 342.127981 184.591923 
L 236.16 174.528 
z
" style="fill: #ab8d7f"/>
   </g>
   <g id="patch_10">
    <path d="M 342.127981 184.591923 
C 342.286809 182.91954 342.406025 181.243632 342.485528 179.565606 
C 342.565032 177.88758 342.6048 176.207907 342.6048 174.527999 
L 236.16 174.528 
z
" style="fill: #f8e2cd"/>
   </g>
   <g id="patch_11">
    <path d="M 342.6048 174.528 
C 342.6048 149.11287 333.502493 124.519368 316.956228 105.22818 
C 300.409963 85.936993 277.489563 73.195421 252.370895 69.324852 
C 227.252226 65.454283 201.559375 70.704973 179.973319 84.120299 
C 158.387263 97.535626 142.303681 118.248201 134.652841 142.484403 
L 236.16 174.528 
z
" style="fill: #e4be9e"/>
   </g>
   <g id="patch_12">
    <path d="M 134.652841 142.484403 
C 129.309664 159.410428 128.283932 177.407125 131.669339 194.830641 
C 135.054746 212.254157 142.744977 228.557334 154.037593 242.251008 
C 165.330209 255.944682 179.870583 266.598825 196.330568 273.240268 
C 212.790554 279.881711 230.653252 282.301889 248.287049 280.279738 
L 236.16 174.528 
z
" style="fill: #f8e2cd"/>
   </g>
   <g id="patch_13">
    <path d="M 248.287049 280.279738 
C 272.520924 277.500726 295.078343 266.474332 312.157694 249.058839 
C 329.237045 231.643346 339.821757 208.875333 342.127982 184.591903 
L 236.16 174.528 
z
" style="fill: #31271c"/>
   </g>
   <g id="patch_14">
    <path d="M 342.127982 184.591903 
C 342.286811 182.91952 342.406026 181.243612 342.485529 179.565586 
C 342.565032 177.88756 342.6048 176.207888 342.6048 174.527979 
L 236.16 174.528 
z
" style="fill: #ab8d7f"/>
   </g>
   <g id="patch_15">
    <path d="M 342.6048 174.528 
C 342.6048 149.132164 333.516308 124.556076 316.992775 105.270813 
C 300.469242 85.985551 277.577389 73.236125 252.481883 69.342014 
C 227.386378 65.447903 201.707328 70.660501 180.11647 84.031491 
C 158.525613 97.40248 142.416803 118.068661 134.720684 142.270278 
L 236.16 174.528 
z
" style="fill: #f8e2cd"/>
   </g>
   <g id="patch_16">
    <path d="M 134.720684 142.270278 
C 129.340682 159.188512 128.277672 177.18692 131.62879 194.620826 
C 134.979908 212.054732 142.639874 228.376423 153.908729 242.09444 
C 165.177583 255.812457 179.701297 266.495828 196.152709 273.168317 
C 212.604121 279.840806 230.466384 282.292787 248.107265 280.3002 
L 236.16 174.528 
z
" style="fill: #ab8d7f"/>
   </g>
   <g id="patch_17">
    <path d="M 248.107265 280.3002 
C 272.376646 277.558906 294.97843 266.546505 312.094313 249.123413 
C 329.210195 231.70032 339.818818 208.906226 342.127981 184.591923 
L 236.16 174.528 
z
" style="fill: #e4be9e"/>
   </g>
   <g id="patch_18">
    <path d="M 342.127981 184.591923 
C 342.286809 182.91954 342.406025 181.243632 342.485528 179.565606 
C 342.565032 177.88758 342.6048 176.207907 342.6048 174.527999 
L 236.16 174.528 
z
" style="fill: #31271c"/>
   </g>
   <g id="patch_19">
    <path d="M 342.6048 174.528 
C 342.6048 149.132164 333.516308 124.556076 316.992775 105.270813 
C 300.469242 85.985551 277.577389 73.236125 252.481883 69.342014 
C 227.386378 65.447903 201.707328 70.660501 180.11647 84.031491 
C 158.525613 97.40248 142.416803 118.068661 134.720684 142.270278 
L 236.16 174.528 
z
" style="fill: #ab8d7f"/>
   </g>
   <g id="patch_20">
    <path d="M 134.720684 142.270278 
C 129.340682 159.188512 128.277672 177.18692 131.62879 194.620826 
C 134.979908 212.054732 142.639874 228.376423 153.908729 242.09444 
C 165.177583 255.812457 179.701297 266.495828 196.152709 273.168317 
C 212.604121 279.840806 230.466384 282.292787 248.107265 280.3002 
L 236.16 174.528 
z
" style="fill: #f8e2cd"/>
   </g>
   <g id="patch_21">
    <path d="M 248.107265 280.3002 
C 272.376646 277.558906 294.97843 266.546505 312.094313 249.123413 
C 329.210195 231.70032 339.818818 208.906226 342.127981 184.591923 
L 236.16 174.528 
z
" style="fill: #31271c"/>
   </g>
   <g id="patch_22">
    <path d="M 342.127981 184.591923 
C 342.286809 182.91954 342.406025 181.243632 342.485528 179.565606 
C 342.565032 177.88758 342.6048 176.207907 342.6048 174.527999 
L 236.16 174.528 
z
" style="fill: #e4be9e"/>
   </g>
   <g id="patch_23">
    <path d="M 342.6048 174.528 
C 342.6048 148.271215 332.889641 122.920919 315.341781 103.389114 
C 297.793921 83.85731 273.625005 71.492629 247.518125 68.690916 
C 221.411245 65.889202 195.16903 72.843908 173.876303 88.207455 
C 152.583576 103.571001 137.710559 126.282566 132.139123 151.941441 
L 236.16 174.528 
z
" style="fill: #e2bc9d"/>
   </g>
   <g id="patch_24">
    <path d="M 132.139123 151.941441 
C 128.435535 168.998068 128.983415 186.70668 133.734329 203.501735 
C 138.485242 220.296791 147.294935 235.668337 159.384581 248.257441 
C 171.474226 260.846545 186.476743 270.27096 203.065822 275.697515 
C 219.654902 281.124071 237.326846 282.387997 254.519354 279.377557 
L 236.16 174.528 
z
" style="fill: #30271c"/>
   </g>
   <g id="patch_25">
    <path d="M 254.519354 279.377557 
C 277.494847 275.354505 298.523185 263.888991 314.350225 246.755309 
C 330.177264 229.621628 339.942185 207.751663 342.133862 184.529803 
L 236.16 174.528 
z
" style="fill: #f8e1cc"/>
   </g>
   <g id="patch_26">
    <path d="M 342.133862 184.529803 
C 342.290733 182.867681 342.408478 181.202098 342.487 179.534437 
C 342.565523 177.866777 342.6048 176.197499 342.6048 174.527991 
L 236.16 174.528 
z
" style="fill: #aa8c7e"/>
   </g>
   <g id="patch_27">
    <path d="M 342.6048 174.528 
C 342.6048 148.200601 332.837316 122.787069 315.204561 103.236676 
C 297.571805 83.686283 273.297902 71.356281 247.11018 68.647931 
C 220.922458 65.939581 194.638955 73.040906 173.378369 88.568927 
C 152.117784 104.096947 137.356094 126.973658 131.968132 152.74383 
L 236.16 174.528 
z
" style="fill: #f8e1cc"/>
   </g>
   <g id="patch_28">
    <path d="M 131.968132 152.74383 
C 128.404482 169.788471 129.077153 187.450021 133.926948 204.174221 
C 138.776742 220.898421 147.657097 236.179853 159.786518 248.673712 
C 171.915939 261.167572 186.927866 270.496285 203.501213 275.838903 
C 220.074559 281.18152 237.708466 282.376584 254.851106 279.318925 
L 236.16 174.528 
z
" style="fill: #aa8c7e"/>
   </g>
   <g id="patch_29">
    <path d="M 254.851106 279.318925 
C 277.757033 275.233294 298.703541 263.747812 314.464421 246.631488 
C 330.225302 229.515165 339.947595 207.694315 342.133861 184.529813 
L 236.16 174.528 
z
" style="fill: #e2bc9d"/>
   </g>
   <g id="patch_30">
    <path d="M 342.133861 184.529813 
C 342.290732 182.867691 342.408478 181.202108 342.487 179.534447 
C 342.565522 177.866787 342.6048 176.197509 342.6048 174.528001 
L 236.16 174.528 
z
" style="fill: #30271c"/>
   </g>
   <g id="patch_31">
    <path d="M 342.6048 174.528 
C 342.6048 148.574751 333.112963 123.49674 315.92853 104.047669 
C 298.744097 84.598598 275.02611 72.090253 249.27047 68.893673 
C 223.51483 65.697093 197.458684 72.02788 176.041146 86.685989 
C 154.623608 101.344099 139.289232 123.340883 132.94475 148.506707 
L 236.16 174.528 
z
" style="fill: #e3bc9d"/>
   </g>
   <g id="patch_32">
    <path d="M 132.94475 148.506707 
C 128.640226 165.580899 128.638917 183.459356 132.940941 200.534179 
C 137.242965 217.609002 145.71537 233.352496 157.596188 246.348769 
C 169.477007 259.345043 184.399065 269.19245 201.020347 275.005362 
C 217.64163 280.818274 235.448459 282.417045 252.839377 279.65789 
L 236.16 174.528 
z
" style="fill: #f8e2cc"/>
   </g>
   <g id="patch_33">
    <path d="M 252.839377 279.65789 
C 276.159324 275.958065 297.598262 264.602103 313.760266 247.388786 
C 329.92227 230.17547 339.906417 208.064324 342.13122 184.557753 
L 236.16 174.528 
z
" style="fill: #aa8c7f"/>
   </g>
   <g id="patch_34">
    <path d="M 342.13122 184.557753 
C 342.28897 182.891013 342.407376 181.220784 342.486339 179.548459 
C 342.565302 177.876134 342.6048 176.202178 342.6048 174.52799 
L 236.16 174.528 
z
" style="fill: #31271c"/>
   </g>
   <g id="patch_35">
    <path d="M 342.6048 174.528 
C 342.6048 148.271215 332.889641 122.920919 315.341781 103.389114 
C 297.793921 83.85731 273.625005 71.492629 247.518125 68.690916 
C 221.411245 65.889202 195.16903 72.843908 173.876303 88.207455 
C 152.583576 103.571001 137.710559 126.282566 132.139123 151.941441 
L 236.16 174.528 
z
" style="fill: #aa8c7e"/>
   </g>
   <g id="patch_36">
    <path d="M 132.139123 151.941441 
C 128.435647 168.997552 128.983381 186.705617 133.733904 203.500234 
C 138.484428 220.294852 147.293509 235.666113 159.38242 248.255191 
C 171.471331 260.844269 186.473035 270.26894 203.061375 275.696061 
C 219.649715 281.123181 237.321044 282.387974 254.513208 279.378633 
L 236.16 174.528 
z
" style="fill: #f8e1cc"/>
   </g>
   <g id="patch_37">
    <path d="M 254.513208 279.378633 
C 277.489988 275.356744 298.519843 263.891603 314.348108 246.757601 
C 330.176373 229.623599 339.942085 207.752725 342.133862 184.529803 
L 236.16 174.528 
z
" style="fill: #30271c"/>
   </g>
   <g id="patch_38">
    <path d="M 342.133862 184.529803 
C 342.290733 182.867681 342.408478 181.202098 342.487 179.534437 
C 342.565523 177.866777 342.6048 176.197499 342.6048 174.527991 
L 236.16 174.528 
z
" style="fill: #e2bc9d"/>
   </g>
   <g id="patch_39">
    <path d="M 342.6048 174.528 
C 342.6048 149.053648 333.460024 124.406713 316.843916 105.097451 
C 300.227809 85.78819 277.219765 73.070946 252.030134 69.272909 
C 226.840503 65.474871 201.105622 70.842762 179.534837 84.394286 
C 157.964052 97.945811 141.958616 118.800652 134.44744 143.142485 
L 236.16 174.528 
z
" style="fill: #e4be9e"/>
   </g>
   <g id="patch_40">
    <path d="M 134.44744 143.142485 
C 129.222945 160.073758 128.307822 178.044611 131.785382 195.419015 
C 135.262941 212.793419 143.02435 229.027629 154.363026 242.643714 
C 165.701701 256.259799 180.262791 266.831634 196.720682 273.39678 
C 213.178574 279.961926 231.018205 282.314923 248.615491 280.241557 
L 236.16 174.528 
z
" style="fill: #f8e2cd"/>
   </g>
   <g id="patch_41">
    <path d="M 248.615491 280.241557 
C 272.784331 277.393911 295.260697 266.342188 312.273358 248.940715 
C 329.28602 231.539242 339.827112 208.818921 342.127981 184.591913 
L 236.16 174.528 
z
" style="fill: #31271c"/>
   </g>
   <g id="patch_42">
    <path d="M 342.127981 184.591913 
C 342.28681 182.91953 342.406026 181.243622 342.485529 179.565596 
C 342.565032 177.88757 342.6048 176.207897 342.6048 174.527989 
L 236.16 174.528 
z
" style="fill: #ab8d7f"/>
   </g>
   <g id="patch_43">
    <path d="M 342.6048 174.528 
C 342.6048 148.209461 332.843889 122.803861 315.221793 103.255787 
C 297.599696 83.707712 273.338967 71.373333 247.16137 68.653238 
C 220.983774 65.933142 194.705409 73.016041 173.440726 88.523418 
C 152.176043 104.030795 137.400302 126.886809 131.989245 152.643089 
L 236.16 174.528 
z
" style="fill: #f8e1cc"/>
   </g>
   <g id="patch_44">
    <path d="M 131.989245 152.643089 
C 128.407597 169.691504 129.065288 187.361342 133.904392 204.096327 
C 138.743495 220.831313 147.617647 236.125271 159.745252 248.631184 
C 171.872858 261.137096 186.887101 270.476702 203.465597 275.827415 
C 220.044093 281.178127 237.685402 282.378105 254.835761 279.321661 
L 236.16 174.528 
z
" style="fill: #aa8c7e"/>
   </g>
   <g id="patch_45">
    <path d="M 254.835761 279.321661 
C 277.744912 275.238916 298.695206 263.75435 314.459145 246.637218 
C 330.223085 229.520085 339.947348 207.69696 342.133862 184.529803 
L 236.16 174.528 
z
" style="fill: #e2bc9d"/>
   </g>
   <g id="patch_46">
    <path d="M 342.133862 184.529803 
C 342.290733 182.867681 342.408478 181.202098 342.487 179.534437 
C 342.565523 177.866777 342.6048 176.197499 342.6048 174.527991 
L 236.16 174.528 
z
" style="fill: #30271c"/>
   </g>
   <g id="patch_47">
    <path d="M 342.6048 174.528 
C 342.6048 149.183339 333.552899 124.653452 317.089611 105.383994 
C 300.626322 86.114536 277.810164 73.344448 252.776202 69.388106 
C 227.742241 65.431764 202.10005 70.543544 180.496871 83.797016 
C 158.893691 97.050488 142.718513 117.593513 134.902831 141.702992 
L 236.16 174.528 
z
" style="fill: #f8e2cd"/>
   </g>
   <g id="patch_48">
    <path d="M 134.902831 141.702992 
C 129.416333 158.627505 128.259636 176.660555 131.538887 194.147331 
C 134.818138 211.634107 142.429863 228.022837 153.675569 241.809603 
C 164.921275 255.596369 179.44612 266.346147 195.917224 273.072479 
C 212.388328 279.798812 230.285968 282.289459 247.96776 280.315864 
L 236.16 174.528 
z
" style="fill: #ac8d7f"/>
   </g>
   <g id="patch_49">
    <path d="M 247.96776 280.315864 
C 272.26465 277.60391 294.900861 266.602428 312.045104 249.173472 
C 329.189347 231.744516 339.81654 208.930191 342.12798 184.591933 
L 236.16 174.528 
z
" style="fill: #e4be9e"/>
   </g>
   <g id="patch_50">
    <path d="M 342.12798 184.591933 
C 342.286808 182.91955 342.406024 181.243642 342.485528 179.565616 
C 342.565031 177.88759 342.6048 176.207917 342.6048 174.528009 
L 236.16 174.528 
z
" style="fill: #31271c"/>
   </g>
   <g id="patch_51">
    <path d="M 342.6048 174.528 
C 342.6048 149.164584 333.539498 124.617764 317.05414 105.342499 
C 300.568782 86.067234 277.724887 73.30469 252.668353 69.371119 
C 227.61182 65.437547 201.956078 70.586237 180.357345 83.882762 
C 158.758612 97.179287 142.607663 117.767463 134.835708 141.910776 
L 236.16 174.528 
z
" style="fill: #f8e2cd"/>
   </g>
   <g id="patch_52">
    <path d="M 134.835708 141.910776 
C 129.389035 158.830678 128.266254 176.84843 131.57021 194.313631 
C 134.874165 211.778832 142.500801 228.141424 153.751529 241.902619 
C 165.002257 255.663814 179.52274 266.39021 195.982925 273.099284 
C 212.44311 279.808359 230.324591 282.288813 247.98945 280.313441 
L 236.16 174.528 
z
" style="fill: #ab8d7f"/>
   </g>
   <g id="patch_53">
    <path d="M 247.98945 280.313441 
C 272.282064 277.596921 294.91292 266.593739 312.052752 249.165695 
C 329.192585 231.737651 339.816891 208.926475 342.127979 184.591943 
L 236.16 174.528 
z
" style="fill: #31271c"/>
   </g>
   <g id="patch_54">
    <path d="M 342.127979 184.591943 
C 342.286807 182.91956 342.406024 181.243652 342.485527 179.565626 
C 342.565031 177.8876 342.6048 176.207927 342.6048 174.528019 
L 236.16 174.528 
z
" style="fill: #e4be9e"/>
   </g>
   <g id="patch_55">
    <path d="M 342.6048 174.528 
C 342.6048 148.263697 332.884077 122.906668 315.327186 103.372873 
C 297.770295 83.839078 273.590204 71.478066 247.474702 68.686265 
C 221.3592 65.894463 195.112554 72.864751 173.823193 88.245801 
C 152.533831 103.626851 137.672594 126.356017 132.120625 152.026803 
L 236.16 174.528 
z
" style="fill: #f8e1cc"/>
   </g>
   <g id="patch_56">
    <path d="M 132.120625 152.026803 
C 128.431759 169.08311 128.993213 186.78771 133.75537 203.576015 
C 138.517527 220.36432 147.33585 235.726783 159.431046 248.305796 
C 171.526243 260.884808 186.531209 270.298579 203.119928 275.715198 
C 219.708646 281.131817 237.377627 282.386881 254.565432 279.369478 
L 236.16 174.528 
z
" style="fill: #aa8c7e"/>
   </g>
   <g id="patch_57">
    <path d="M 254.565432 279.369478 
C 277.531273 275.337713 298.548245 263.869409 314.366091 246.73813 
C 330.183937 229.60685 339.942934 207.743706 342.133861 184.529813 
L 236.16 174.528 
z
" style="fill: #e2bc9d"/>
   </g>
   <g id="patch_58">
    <path d="M 342.133861 184.529813 
C 342.290732 182.867691 342.408478 181.202108 342.487 179.534447 
C 342.565522 177.866787 342.6048 176.197509 342.6048 174.528001 
L 236.16 174.528 
z
" style="fill: #30271c"/>
   </g>
   <g id="patch_59">
    <path d="M 342.6048 174.528 
C 342.6048 148.211342 332.845284 122.807425 315.225449 103.259843 
C 297.605615 83.712262 273.347682 71.376954 247.172235 68.654367 
C 220.996788 65.93178 194.719515 73.010769 173.453965 88.513765 
C 152.188415 104.016761 137.409695 126.868382 131.993739 152.621711 
L 236.16 174.528 
z
" style="fill: #e2bc9d"/>
   </g>
   <g id="patch_60">
    <path d="M 131.993739 152.621711 
C 128.409026 169.667325 129.062491 187.335113 133.896594 204.069347 
C 138.730697 220.803581 147.599258 236.098233 159.721362 248.60654 
C 171.843465 261.114846 186.85255 270.458568 203.426998 275.814949 
C 220.001446 281.171329 237.640061 282.378396 254.789684 279.329862 
L 236.16 174.528 
z
" style="fill: #f8e1cc"/>
   </g>
   <g id="patch_61">
    <path d="M 254.789684 279.329862 
C 277.708506 275.255789 298.670163 263.773983 314.443288 246.654432 
C 330.216413 229.534882 339.946593 207.704936 342.133861 184.529813 
L 236.16 174.528 
z
" style="fill: #aa8c7e"/>
   </g>
   <g id="patch_62">
    <path d="M 342.133861 184.529813 
C 342.290732 182.867691 342.408478 181.202108 342.487 179.534447 
C 342.565522 177.866787 342.6048 176.197509 342.6048 174.528001 
L 236.16 174.528 
z
" style="fill: #30271c"/>
   </g>
   <g id="patch_63">
    <path d="M 342.6048 174.528 
C 342.6048 148.211072 332.845084 122.806914 315.224926 103.259262 
C 297.604767 83.71161 273.346433 71.376435 247.170678 68.654205 
C 220.994923 65.931975 194.717494 73.011524 173.452068 88.515148 
C 152.186642 104.018771 137.408349 126.871022 131.993095 152.624773 
L 236.16 174.528 
z
" style="fill: #e2bc9d"/>
   </g>
   <g id="patch_64">
    <path d="M 131.993095 152.624773 
C 128.408938 169.670234 129.062847 187.337729 133.897245 204.071602 
C 138.731643 220.805475 147.600347 236.099725 159.722451 248.607663 
C 171.844554 261.115602 186.853507 270.459012 203.427742 275.81519 
C 220.001978 281.171367 237.640322 282.37835 254.789684 279.329862 
L 236.16 174.528 
z
" style="fill: #f8e1cc"/>
   </g>
   <g id="patch_65">
    <path d="M 254.789684 279.329862 
C 277.708506 275.255789 298.670163 263.773983 314.443288 246.654432 
C 330.216413 229.534882 339.946593 207.704936 342.133861 184.529813 
L 236.16 174.528 
z
" style="fill: #aa8c7e"/>
   </g>
   <g id="patch_66">
    <path d="M 342.133861 184.529813 
C 342.290732 182.867691 342.408478 181.202108 342.487 179.534447 
C 342.565522 177.866787 342.6048 176.197509 342.6048 174.528001 
L 236.16 174.528 
z
" style="fill: #30271c"/>
   </g>
   <g id="patch_67">
    <path d="M 342.6048 174.528 
C 342.6048 149.136182 333.519184 124.563721 317.000384 105.279695 
C 300.481584 85.995669 277.595675 73.244612 252.504997 69.345604 
C 227.414318 65.446595 201.738149 70.651265 180.146302 84.013023 
C 158.554455 97.37478 142.440405 118.031297 134.734871 142.2257 
L 236.16 174.528 
z
" style="fill: #e4be9e"/>
   </g>
   <g id="patch_68">
    <path d="M 134.734871 142.2257 
C 129.346553 159.144334 128.276178 177.145348 131.621585 194.583306 
C 134.966993 212.021265 142.623047 228.348146 153.889925 242.071542 
C 165.156802 255.794939 179.680418 266.483568 196.1332 273.160402 
C 212.585981 279.837236 230.450868 282.292444 248.094866 280.3016 
L 236.16 174.528 
z
" style="fill: #31271c"/>
   </g>
   <g id="patch_69">
    <path d="M 248.094866 280.3016 
C 272.366694 277.562911 294.971538 266.551478 312.089941 249.127863 
C 329.208343 231.704248 339.818616 208.908356 342.127981 184.591923 
L 236.16 174.528 
z
" style="fill: #ab8d7f"/>
   </g>
   <g id="patch_70">
    <path d="M 342.127981 184.591923 
C 342.286809 182.91954 342.406025 181.243632 342.485528 179.565606 
C 342.565032 177.88758 342.6048 176.207907 342.6048 174.527999 
L 236.16 174.528 
z
" style="fill: #f8e2cd"/>
   </g>
   <g id="patch_71">
    <path d="M 342.6048 174.528 
C 342.6048 149.176373 333.547923 124.640196 317.076438 105.368579 
C 300.604954 86.096963 277.778494 73.329673 252.736146 69.381784 
C 227.693799 65.433894 202.046569 70.559379 180.445031 83.828839 
C 158.843494 97.0983 142.677303 117.658097 134.87785 141.780152 
L 236.16 174.528 
z
" style="fill: #e4be9e"/>
   </g>
   <g id="patch_72">
    <path d="M 134.87785 141.780152 
C 129.40636 158.702311 128.262141 176.728959 131.550116 194.207114 
C 134.83809 211.685268 142.454589 228.063858 153.701207 241.841022 
C 164.947825 255.618186 179.469965 266.359542 195.935996 273.080143 
C 212.402027 279.800745 230.292789 282.288698 247.96776 280.315864 
L 236.16 174.528 
z
" style="fill: #ab8d7f"/>
   </g>
   <g id="patch_73">
    <path d="M 247.96776 280.315864 
C 272.26465 277.60391 294.900861 266.602428 312.045104 249.173472 
C 329.189347 231.744516 339.81654 208.930191 342.12798 184.591933 
L 236.16 174.528 
z
" style="fill: #f8e2cd"/>
   </g>
   <g id="patch_74">
    <path d="M 342.12798 184.591933 
C 342.286808 182.91955 342.406024 181.243642 342.485528 179.565616 
C 342.565031 177.88759 342.6048 176.207917 342.6048 174.528009 
L 236.16 174.528 
z
" style="fill: #31271c"/>
   </g>
   <g id="patch_75">
    <path d="M 342.6048 174.528 
C 342.6048 148.209461 332.843889 122.803861 315.221793 103.255787 
C 297.599696 83.707712 273.338967 71.373333 247.16137 68.653238 
C 220.983774 65.933142 194.705409 73.016041 173.440726 88.523418 
C 152.176043 104.030795 137.400302 126.886809 131.989245 152.643089 
L 236.16 174.528 
z
" style="fill: #e2bc9d"/>
   </g>
   <g id="patch_76">
    <path d="M 131.989245 152.643089 
C 128.407597 169.691504 129.065288 187.361342 133.904392 204.096327 
C 138.743495 220.831313 147.617647 236.125271 159.745252 248.631184 
C 171.872858 261.137096 186.887101 270.476702 203.465597 275.827415 
C 220.044093 281.178127 237.685402 282.378105 254.835761 279.321661 
L 236.16 174.528 
z
" style="fill: #f8e1cc"/>
   </g>
   <g id="patch_77">
    <path d="M 254.835761 279.321661 
C 277.744912 275.238916 298.695206 263.75435 314.459145 246.637218 
C 330.223085 229.520085 339.947348 207.69696 342.133862 184.529803 
L 236.16 174.528 
z
" style="fill: #aa8c7e"/>
   </g>
   <g id="patch_78">
    <path d="M 342.133862 184.529803 
C 342.290733 182.867681 342.408478 181.202098 342.487 179.534437 
C 342.565523 177.866777 342.6048 176.197499 342.6048 174.527991 
L 236.16 174.528 
z
" style="fill: #30271c"/>
   </g>
   <g id="patch_79">
    <path d="M 342.6048 174.528 
C 342.6048 149.176373 333.547923 124.640196 317.076438 105.368579 
C 300.604954 86.096963 277.778494 73.329673 252.736146 69.381784 
C 227.693799 65.433894 202.046569 70.559379 180.445031 83.828839 
C 158.843494 97.0983 142.677303 117.658097 134.87785 141.780152 
L 236.16 174.528 
z
" style="fill: #e4be9e"/>
   </g>
   <g id="patch_80">
    <path d="M 134.87785 141.780152 
C 129.40636 158.702311 128.262141 176.728959 131.550116 194.207114 
C 134.83809 211.685268 142.454589 228.063858 153.701207 241.841022 
C 164.947825 255.618186 179.469965 266.359542 195.935996 273.080143 
C 212.402027 279.800745 230.292789 282.288698 247.96776 280.315864 
L 236.16 174.528 
z
" style="fill: #ab8d7f"/>
   </g>
   <g id="patch_81">
    <path d="M 247.96776 280.315864 
C 272.26465 277.60391 294.900861 266.602428 312.045104 249.173472 
C 329.189347 231.744516 339.81654 208.930191 342.12798 184.591933 
L 236.16 174.528 
z
" style="fill: #31271c"/>
   </g>
   <g id="patch_82">
    <path d="M 342.12798 184.591933 
C 342.286808 182.91955 342.406024 181.243642 342.485528 179.565616 
C 342.565031 177.88759 342.6048 176.207917 342.6048 174.528009 
L 236.16 174.528 
z
" style="fill: #f8e2cd"/>
   </g>
   <g id="patch_83">
    <path d="M 342.6048 174.528 
C 342.6048 153.566168 336.412881 133.064115 324.809682 115.606618 
C 313.206484 98.149121 296.701018 84.502009 277.374196 76.38583 
C 258.047374 68.269651 236.747029 66.040447 216.158582 69.979262 
C 195.570135 73.918076 176.596764 83.852122 161.63052 98.528973 
C 146.664276 113.205824 136.361701 131.981633 132.021682 152.489257 
C 127.681663 172.996881 129.49459 194.336688 137.231898 213.818281 
C 144.969207 233.299874 158.291476 250.06863 175.519113 262.010445 
C 192.74675 273.95226 213.124008 280.543268 234.081845 280.952512 
L 236.16 174.528 
z
" style="fill: #a6e1e6"/>
   </g>
   <g id="patch_84">
    <path d="M 234.081845 280.952512 
C 247.600963 281.2165 261.047391 278.902084 273.700269 274.13334 
C 286.353146 269.364595 297.982252 262.22829 307.964151 253.107 
L 236.16 174.528 
z
" style="fill: #067ab1"/>
   </g>
   <g id="patch_85">
    <path d="M 307.964151 253.107 
C 315.432035 246.282975 321.889132 238.42908 327.140345 229.782614 
C 332.391557 221.136148 336.383461 211.785079 338.995443 202.011945 
L 236.16 174.528 
z
" style="fill: #6c573c"/>
   </g>
   <g id="patch_86">
    <path d="M 338.995443 202.011945 
C 340.19214 197.534315 341.095116 192.983302 341.698603 188.387971 
C 342.302089 183.792641 342.6048 179.162798 342.6048 174.52801 
L 236.16 174.528 
z
" style="fill: #f9fafa"/>
   </g>
   <g id="patch_87">
    <path d="M 342.6048 174.528 
C 342.6048 153.564083 336.411649 133.060083 324.806292 115.601517 
C 313.200935 98.142952 296.692581 84.495851 277.362903 76.381088 
C 258.033225 68.266326 236.730351 66.039955 216.140537 69.982715 
C 195.550723 73.925476 176.577386 83.864372 161.613032 98.546127 
C 146.648678 113.227882 136.349897 132.008303 132.015347 152.519215 
C 127.680796 173.030126 129.500664 194.37157 137.245467 213.852428 
C 144.990271 233.333287 158.320191 250.098798 175.55435 262.03486 
C 192.788509 273.970923 213.170722 280.553819 234.130829 280.953457 
L 236.16 174.528 
z
" style="fill: #a6e1e6"/>
   </g>
   <g id="patch_88">
    <path d="M 234.130829 280.953457 
C 247.779703 281.213695 261.352069 278.845854 274.106517 273.979281 
C 286.860965 269.112709 298.560943 261.837663 308.567324 252.551554 
L 236.16 174.528 
z
" style="fill: #166a96"/>
   </g>
   <g id="patch_89">
    <path d="M 308.567324 252.551554 
C 318.477711 243.354528 326.545675 232.352963 332.338775 220.136538 
C 338.131875 207.920114 341.544725 194.711066 342.394398 181.217397 
L 236.16 174.528 
z
" style="fill: #f9fafa"/>
   </g>
   <g id="patch_90">
    <path d="M 342.394398 181.217397 
C 342.46451 180.103947 342.517113 178.989463 342.552186 177.874359 
C 342.58726 176.759254 342.6048 175.643668 342.6048 174.528012 
L 236.16 174.528 
z
" style="fill: #edac10"/>
   </g>
   <g id="patch_91">
    <path d="M 342.6048 174.528 
C 342.6048 153.564083 336.411649 133.060083 324.806292 115.601517 
C 313.200935 98.142952 296.692581 84.495851 277.362903 76.381088 
C 258.033225 68.266326 236.730351 66.039955 216.140537 69.982715 
C 195.550723 73.925476 176.577386 83.864372 161.613032 98.546127 
C 146.648678 113.227882 136.349897 132.008303 132.015347 152.519215 
C 127.680796 173.030126 129.500664 194.37157 137.245467 213.852428 
C 144.990271 233.333287 158.320191 250.098798 175.55435 262.03486 
C 192.788509 273.970923 213.170722 280.553819 234.130829 280.953457 
L 236.16 174.528 
z
" style="fill: #a6e1e6"/>
   </g>
   <g id="patch_92">
    <path d="M 234.130829 280.953457 
C 247.779703 281.213695 261.352069 278.845854 274.106517 273.979281 
C 286.860965 269.112709 298.560943 261.837663 308.567324 252.551554 
L 236.16 174.528 
z
" style="fill: #166a96"/>
   </g>
   <g id="patch_93">
    <path d="M 308.567324 252.551554 
C 318.477711 243.354528 326.545675 232.352963 332.338775 220.136538 
C 338.131875 207.920114 341.544725 194.711066 342.394398 181.217397 
L 236.16 174.528 
z
" style="fill: #f9fafa"/>
   </g>
   <g id="patch_94">
    <path d="M 342.394398 181.217397 
C 342.46451 180.103947 342.517113 178.989463 342.552186 177.874359 
C 342.58726 176.759254 342.6048 175.643668 342.6048 174.528012 
L 236.16 174.528 
z
" style="fill: #edac10"/>
   </g>
   <g id="patch_95">
    <path d="M 342.6048 174.528 
C 342.6048 153.566168 336.412881 133.064115 324.809682 115.606618 
C 313.206484 98.149121 296.701018 84.502009 277.374196 76.38583 
C 258.047374 68.269651 236.747029 66.040447 216.158582 69.979262 
C 195.570135 73.918076 176.596764 83.852122 161.63052 98.528973 
C 146.664276 113.205824 136.361701 131.981633 132.021682 152.489257 
C 127.681663 172.996881 129.49459 194.336688 137.231898 213.818281 
C 144.969207 233.299874 158.291476 250.06863 175.519113 262.010445 
C 192.74675 273.95226 213.124008 280.543268 234.081845 280.952512 
L 236.16 174.528 
z
" style="fill: #a6e1e6"/>
   </g>
   <g id="patch_96">
    <path d="M 234.081845 280.952512 
C 247.600963 281.2165 261.047391 278.902084 273.700269 274.13334 
C 286.353146 269.364595 297.982252 262.22829 307.964151 253.107 
L 236.16 174.528 
z
" style="fill: #067ab1"/>
   </g>
   <g id="patch_97">
    <path d="M 307.964151 253.107 
C 315.432035 246.282975 321.889132 238.42908 327.140345 229.782614 
C 332.391557 221.136148 336.383461 211.785079 338.995443 202.011945 
L 236.16 174.528 
z
" style="fill: #6c573c"/>
   </g>
   <g id="patch_98">
    <path d="M 338.995443 202.011945 
C 340.19214 197.534315 341.095116 192.983302 341.698603 188.387971 
C 342.302089 183.792641 342.6048 179.162798 342.6048 174.52801 
L 236.16 174.528 
z
" style="fill: #f9fafa"/>
   </g>
   <g id="patch_99">
    <path d="M 342.6048 174.528 
C 342.6048 153.566276 336.412945 133.064325 324.809859 115.606883 
C 313.206773 98.149442 296.701457 84.50233 277.374784 76.386077 
C 258.048111 68.269824 236.747897 66.040472 216.159522 69.979082 
C 195.571146 73.917691 176.597774 83.851484 161.631431 98.52808 
C 146.665089 113.204675 136.362316 131.980244 132.022012 152.487697 
C 127.681709 172.99515 129.494274 194.334871 137.231192 213.816502 
C 144.96811 233.298134 158.289981 250.067059 175.517278 262.009174 
C 192.744575 273.951288 213.121576 280.542717 234.079294 280.952462 
L 236.16 174.528 
z
" style="fill: #a6e1e6"/>
   </g>
   <g id="patch_100">
    <path d="M 234.079294 280.952462 
C 247.598406 281.216774 261.04489 278.902681 273.697881 274.134239 
C 286.350873 269.365798 297.98015 262.229772 307.962268 253.108721 
L 236.16 174.528 
z
" style="fill: #067ab1"/>
   </g>
   <g id="patch_101">
    <path d="M 307.962268 253.108721 
C 315.430315 246.284875 321.8876 238.431135 327.13902 229.784794 
C 332.39044 221.138454 336.382568 211.787481 338.994784 202.014409 
L 236.16 174.528 
z
" style="fill: #f9fafa"/>
   </g>
   <g id="patch_102">
    <path d="M 338.994784 202.014409 
C 340.1917 197.536393 341.094841 192.984973 341.698438 188.389224 
C 342.302035 183.793475 342.604801 179.163202 342.6048 174.527985 
L 236.16 174.528 
z
" style="fill: #6c573c"/>
   </g>
   <g id="patch_103">
    <path d="M 342.6048 174.528 
C 342.6048 162.414552 340.537029 150.389508 336.490729 138.971843 
C 332.444428 127.554178 326.478658 116.910545 318.850887 107.500299 
C 311.223116 98.090053 302.044679 90.050547 291.711699 83.728748 
C 281.378719 77.406949 270.042015 72.895131 258.190855 70.388013 
C 246.339696 67.880896 234.14706 67.415073 222.139156 69.010649 
C 210.131252 70.606225 198.483347 74.23991 187.69814 79.754884 
C 176.912933 85.269857 167.147845 92.585621 158.824315 101.386443 
C 150.500786 110.187266 143.740305 120.34469 138.834642 131.420343 
C 133.928979 142.495995 130.949735 154.328217 130.02549 166.406354 
C 129.101244 178.484491 130.245486 190.632251 133.408834 202.325362 
C 136.572181 214.018473 141.708462 225.086264 148.596004 235.051071 
C 155.483546 245.015878 164.02182 253.732255 173.842332 260.824023 
C 183.662843 267.915791 194.622252 273.279438 206.247574 276.683481 
C 217.872896 280.087523 229.994449 281.482275 242.08909 280.807543 
C 254.183732 280.132811 266.07493 277.398443 277.249485 272.722448 
C 288.424041 268.046453 298.71885 261.497082 307.689612 253.356993 
L 236.16 174.528 
z
" style="fill: #b1e5e9"/>
   </g>
   <g id="patch_104">
    <path d="M 307.689612 253.356993 
C 315.212602 246.530614 321.719795 238.662326 327.012948 229.991838 
C 332.3061 221.32135 336.330908 211.937617 338.964753 202.126517 
L 236.16 174.528 
z
" style="fill: #077ab1"/>
   </g>
   <g id="patch_105">
    <path d="M 338.964753 202.126517 
C 339.889096 198.68333 340.639875 195.195877 341.214249 191.677349 
C 341.788624 188.15882 342.185869 184.613656 342.404484 181.055264 
L 236.16 174.528 
z
" style="fill: #efae0e"/>
   </g>
   <g id="patch_106">
    <path d="M 342.404484 181.055264 
C 342.471236 179.968732 342.521317 178.881241 342.554709 177.793173 
C 342.588101 176.705106 342.6048 175.61659 342.6048 174.52801 
L 236.16 174.528 
z
" style="fill: #443d49"/>
   </g>
   <g id="patch_107">
    <path d="M 342.6048 174.528 
C 342.6048 153.565947 336.41275 133.063688 324.809324 115.606078 
C 313.205897 98.148468 296.700126 84.501358 277.373001 76.385329 
C 258.045877 68.269299 236.745265 66.040394 216.156673 69.979627 
C 195.568081 73.918859 176.594715 83.853418 161.62867 98.530787 
C 146.662626 113.208157 136.360452 131.984454 132.021012 152.492426 
C 127.681571 173.000398 129.495232 194.340377 137.233333 213.821893 
C 144.971435 233.303408 158.294513 250.071822 175.52284 262.013029 
C 192.751166 273.954235 213.128949 280.544385 234.087027 280.952613 
L 236.16 174.528 
z
" style="fill: #a6e1e6"/>
   </g>
   <g id="patch_108">
    <path d="M 234.087027 280.952613 
C 247.60529 281.215926 261.050756 278.901169 273.702705 274.132421 
C 286.354654 269.363673 297.982913 262.22769 307.96417 253.106984 
L 236.16 174.528 
z
" style="fill: #067ab1"/>
   </g>
   <g id="patch_109">
    <path d="M 307.96417 253.106984 
C 315.432052 246.282957 321.889147 238.42906 327.140358 229.782592 
C 332.391568 221.136125 336.38347 211.785056 338.995449 202.011921 
L 236.16 174.528 
z
" style="fill: #fafafa"/>
   </g>
   <g id="patch_110">
    <path d="M 338.995449 202.011921 
C 340.192146 197.53429 341.09512 192.983277 341.698606 188.387947 
C 342.302092 183.792616 342.604801 179.162773 342.6048 174.527985 
L 236.16 174.528 
z
" style="fill: #6c573c"/>
   </g>
   <g id="patch_111">
    <path d="M 342.6048 174.528 
C 342.6048 153.564192 336.411713 133.060293 324.806469 115.601783 
C 313.201224 98.143273 296.69302 84.496171 277.363491 76.381335 
C 258.033961 68.266499 236.73122 66.03998 216.141477 69.982535 
C 195.551733 73.925091 176.578395 83.863734 161.613943 98.545233 
C 146.64949 113.226733 136.350511 132.006914 132.015676 152.517655 
C 127.680841 173.028395 129.500347 194.369754 137.24476 213.85065 
C 144.989174 233.331547 158.318696 250.097227 175.552515 262.033589 
C 192.786334 273.969952 213.168289 280.55327 234.128279 280.953408 
L 236.16 174.528 
z
" style="fill: #f9fafa"/>
   </g>
   <g id="patch_112">
    <path d="M 234.128279 280.953408 
C 247.777146 281.213973 261.349569 278.846457 274.104133 273.980191 
C 286.858698 269.113924 298.558851 261.839158 308.565454 252.553289 
L 236.16 174.528 
z
" style="fill: #166a96"/>
   </g>
   <g id="patch_113">
    <path d="M 308.565454 252.553289 
C 318.476379 243.356206 326.544804 232.354426 332.338234 220.137677 
C 338.131665 207.920929 341.544704 194.71147 342.3944 181.217367 
L 236.16 174.528 
z
" style="fill: #a6e1e6"/>
   </g>
   <g id="patch_114">
    <path d="M 342.3944 181.217367 
C 342.464512 180.103917 342.517114 178.989433 342.552187 177.874329 
C 342.58726 176.759224 342.6048 175.643638 342.6048 174.527982 
L 236.16 174.528 
z
" style="fill: #edac10"/>
   </g>
   <g id="patch_115">
    <path d="M 342.6048 174.528 
C 342.6048 153.564083 336.411649 133.060083 324.806292 115.601517 
C 313.200935 98.142952 296.692581 84.495851 277.362903 76.381088 
C 258.033225 68.266326 236.730351 66.039955 216.140537 69.982715 
C 195.550723 73.925476 176.577386 83.864372 161.613032 98.546127 
C 146.648678 113.227882 136.349897 132.008303 132.015347 152.519215 
C 127.680796 173.030126 129.500664 194.37157 137.245467 213.852428 
C 144.990271 233.333287 158.320191 250.098798 175.55435 262.03486 
C 192.788509 273.970923 213.170722 280.553819 234.130829 280.953457 
L 236.16 174.528 
z
" style="fill: #f9fafa"/>
   </g>
   <g id="patch_116">
    <path d="M 234.130829 280.953457 
C 247.779703 281.213695 261.352069 278.845854 274.106517 273.979281 
C 286.860965 269.112709 298.560943 261.837663 308.567324 252.551554 
L 236.16 174.528 
z
" style="fill: #a6e1e6"/>
   </g>
   <g id="patch_117">
    <path d="M 308.567324 252.551554 
C 318.477711 243.354528 326.545675 232.352963 332.338775 220.136538 
C 338.131875 207.920114 341.544725 194.711066 342.394398 181.217397 
L 236.16 174.528 
z
" style="fill: #166a96"/>
   </g>
   <g id="patch_118">
    <path d="M 342.394398 181.217397 
C 342.46451 180.103947 342.517113 178.989463 342.552186 177.874359 
C 342.58726 176.759254 342.6048 175.643668 342.6048 174.528012 
L 236.16 174.528 
z
" style="fill: #edac10"/>
   </g>
   <g id="patch_119">
    <path d="M 342.6048 174.528 
C 342.6048 153.565947 336.41275 133.063688 324.809324 115.606078 
C 313.205897 98.148468 296.700126 84.501358 277.373001 76.385329 
C 258.045877 68.269299 236.745265 66.040394 216.156673 69.979627 
C 195.568081 73.918859 176.594715 83.853418 161.62867 98.530787 
C 146.662626 113.208157 136.360452 131.984454 132.021012 152.492426 
C 127.681571 173.000398 129.495232 194.340377 137.233333 213.821893 
C 144.971435 233.303408 158.294513 250.071822 175.52284 262.013029 
C 192.751166 273.954235 213.128949 280.544385 234.087027 280.952613 
L 236.16 174.528 
z
" style="fill: #067ab1"/>
   </g>
   <g id="patch_120">
    <path d="M 234.087027 280.952613 
C 247.60529 281.215926 261.050756 278.901169 273.702705 274.132421 
C 286.354654 269.363673 297.982913 262.22769 307.96417 253.106984 
L 236.16 174.528 
z
" style="fill: #a6e1e6"/>
   </g>
   <g id="patch_121">
    <path d="M 307.96417 253.106984 
C 315.432052 246.282957 321.889147 238.42906 327.140358 229.782592 
C 332.391568 221.136125 336.38347 211.785056 338.995449 202.011921 
L 236.16 174.528 
z
" style="fill: #fafafa"/>
   </g>
   <g id="patch_122">
    <path d="M 338.995449 202.011921 
C 340.192146 197.53429 341.09512 192.983277 341.698606 188.387947 
C 342.302092 183.792616 342.604801 179.162773 342.6048 174.527985 
L 236.16 174.528 
z
" style="fill: #6c573c"/>
   </g>
   <g id="patch_123">
    <path d="M 342.6048 174.528 
C 342.6048 153.566276 336.412945 133.064325 324.809859 115.606883 
C 313.206773 98.149442 296.701457 84.50233 277.374784 76.386077 
C 258.048111 68.269824 236.747897 66.040472 216.159522 69.979082 
C 195.571146 73.917691 176.597774 83.851484 161.631431 98.52808 
C 146.665089 113.204675 136.362316 131.980244 132.022012 152.487697 
C 127.681709 172.99515 129.494274 194.334871 137.231192 213.816502 
C 144.96811 233.298134 158.289981 250.067059 175.517278 262.009174 
C 192.744575 273.951288 213.121576 280.542717 234.079294 280.952462 
L 236.16 174.528 
z
" style="fill: #a6e1e6"/>
   </g>
   <g id="patch_124">
    <path d="M 234.079294 280.952462 
C 247.598406 281.216774 261.04489 278.902681 273.697881 274.134239 
C 286.350873 269.365798 297.98015 262.229772 307.962268 253.108721 
L 236.16 174.528 
z
" style="fill: #067ab1"/>
   </g>
   <g id="patch_125">
    <path d="M 307.962268 253.108721 
C 315.430315 246.284875 321.8876 238.431135 327.13902 229.784794 
C 332.39044 221.138454 336.382568 211.787481 338.994784 202.014409 
L 236.16 174.528 
z
" style="fill: #6c573c"/>
   </g>
   <g id="patch_126">
    <path d="M 338.994784 202.014409 
C 340.1917 197.536393 341.094841 192.984973 341.698438 188.389224 
C 342.302035 183.793475 342.604801 179.163202 342.6048 174.527985 
L 236.16 174.528 
z
" style="fill: #f9fafa"/>
   </g>
   <g id="patch_127">
    <path d="M 342.6048 174.528 
C 342.6048 153.564083 336.411649 133.060083 324.806292 115.601517 
C 313.200935 98.142952 296.692581 84.495851 277.362903 76.381088 
C 258.033225 68.266326 236.730351 66.039955 216.140537 69.982715 
C 195.550723 73.925476 176.577386 83.864372 161.613032 98.546127 
C 146.648678 113.227882 136.349897 132.008303 132.015347 152.519215 
C 127.680796 173.030126 129.500664 194.37157 137.245467 213.852428 
C 144.990271 233.333287 158.320191 250.098798 175.55435 262.03486 
C 192.788509 273.970923 213.170722 280.553819 234.130829 280.953457 
L 236.16 174.528 
z
" style="fill: #a6e1e6"/>
   </g>
   <g id="patch_128">
    <path d="M 234.130829 280.953457 
C 247.779703 281.213695 261.352069 278.845854 274.106517 273.979281 
C 286.860965 269.112709 298.560943 261.837663 308.567324 252.551554 
L 236.16 174.528 
z
" style="fill: #166a96"/>
   </g>
   <g id="patch_129">
    <path d="M 308.567324 252.551554 
C 318.477711 243.354528 326.545675 232.352963 332.338775 220.136538 
C 338.131875 207.920114 341.544725 194.711066 342.394398 181.217397 
L 236.16 174.528 
z
" style="fill: #f9fafa"/>
   </g>
   <g id="patch_130">
    <path d="M 342.394398 181.217397 
C 342.46451 180.103947 342.517113 178.989463 342.552186 177.874359 
C 342.58726 176.759254 342.6048 175.643668 342.6048 174.528012 
L 236.16 174.528 
z
" style="fill: #edac10"/>
   </g>
   <g id="patch_131">
    <path d="M 342.6048 174.528 
C 342.6048 153.564083 336.411649 133.060083 324.806292 115.601517 
C 313.200935 98.142952 296.692581 84.495851 277.362903 76.381088 
C 258.033225 68.266326 236.730351 66.039955 216.140537 69.982715 
C 195.550723 73.925476 176.577386 83.864372 161.613032 98.546127 
C 146.648678 113.227882 136.349897 132.008303 132.015347 152.519215 
C 127.680796 173.030126 129.500664 194.37157 137.245467 213.852428 
C 144.990271 233.333287 158.320191 250.098798 175.55435 262.03486 
C 192.788509 273.970923 213.170722 280.553819 234.130829 280.953457 
L 236.16 174.528 
z
" style="fill: #a6e1e6"/>
   </g>
   <g id="patch_132">
    <path d="M 234.130829 280.953457 
C 247.779703 281.213695 261.352069 278.845854 274.106517 273.979281 
C 286.860965 269.112709 298.560943 261.837663 308.567324 252.551554 
L 236.16 174.528 
z
" style="fill: #166a96"/>
   </g>
   <g id="patch_133">
    <path d="M 308.567324 252.551554 
C 318.477711 243.354528 326.545675 232.352963 332.338775 220.136538 
C 338.131875 207.920114 341.544725 194.711066 342.394398 181.217397 
L 236.16 174.528 
z
" style="fill: #f9fafa"/>
   </g>
   <g id="patch_134">
    <path d="M 342.394398 181.217397 
C 342.46451 180.103947 342.517113 178.989463 342.552186 177.874359 
C 342.58726 176.759254 342.6048 175.643668 342.6048 174.528012 
L 236.16 174.528 
z
" style="fill: #edac10"/>
   </g>
   <g id="patch_135">
    <path d="M 342.6048 174.528 
C 342.6048 153.565947 336.41275 133.063688 324.809324 115.606078 
C 313.205897 98.148468 296.700126 84.501358 277.373001 76.385329 
C 258.045877 68.269299 236.745265 66.040394 216.156673 69.979627 
C 195.568081 73.918859 176.594715 83.853418 161.62867 98.530787 
C 146.662626 113.208157 136.360452 131.984454 132.021012 152.492426 
C 127.681571 173.000398 129.495232 194.340377 137.233333 213.821893 
C 144.971435 233.303408 158.294513 250.071822 175.52284 262.013029 
C 192.751166 273.954235 213.128949 280.544385 234.087027 280.952613 
L 236.16 174.528 
z
" style="fill: #a6e1e6"/>
   </g>
   <g id="patch_136">
    <path d="M 234.087027 280.952613 
C 247.60529 281.215926 261.050756 278.901169 273.702705 274.132421 
C 286.354654 269.363673 297.982913 262.22769 307.96417 253.106984 
L 236.16 174.528 
z
" style="fill: #067ab1"/>
   </g>
   <g id="patch_137">
    <path d="M 307.96417 253.106984 
C 315.432052 246.282957 321.889147 238.42906 327.140358 229.782592 
C 332.391568 221.136125 336.38347 211.785056 338.995449 202.011921 
L 236.16 174.528 
z
" style="fill: #fafafa"/>
   </g>
   <g id="patch_138">
    <path d="M 338.995449 202.011921 
C 340.192146 197.53429 341.09512 192.983277 341.698606 188.387947 
C 342.302092 183.792616 342.604801 179.162773 342.6048 174.527985 
L 236.16 174.528 
z
" style="fill: #6c573c"/>
   </g>
   <g id="patch_139">
    <path d="M 342.6048 174.528 
C 342.6048 153.564083 336.411649 133.060083 324.806292 115.601517 
C 313.200935 98.142952 296.692581 84.495851 277.362903 76.381088 
C 258.033225 68.266326 236.730351 66.039955 216.140537 69.982715 
C 195.550723 73.925476 176.577386 83.864372 161.613032 98.546127 
C 146.648678 113.227882 136.349897 132.008303 132.015347 152.519215 
C 127.680796 173.030126 129.500664 194.37157 137.245467 213.852428 
C 144.990271 233.333287 158.320191 250.098798 175.55435 262.03486 
C 192.788509 273.970923 213.170722 280.553819 234.130829 280.953457 
L 236.16 174.528 
z
" style="fill: #a6e1e6"/>
   </g>
   <g id="patch_140">
    <path d="M 234.130829 280.953457 
C 247.779703 281.213695 261.352069 278.845854 274.106517 273.979281 
C 286.860965 269.112709 298.560943 261.837663 308.567324 252.551554 
L 236.16 174.528 
z
" style="fill: #166a96"/>
   </g>
   <g id="patch_141">
    <path d="M 308.567324 252.551554 
C 318.477711 243.354528 326.545675 232.352963 332.338775 220.136538 
C 338.131875 207.920114 341.544725 194.711066 342.394398 181.217397 
L 236.16 174.528 
z
" style="fill: #f9fafa"/>
   </g>
   <g id="patch_142">
    <path d="M 342.394398 181.217397 
C 342.46451 180.103947 342.517113 178.989463 342.552186 177.874359 
C 342.58726 176.759254 342.6048 175.643668 342.6048 174.528012 
L 236.16 174.528 
z
" style="fill: #edac10"/>
   </g>
   <g id="patch_143">
    <path d="M 342.6048 174.528 
C 342.6048 153.565947 336.41275 133.063688 324.809324 115.606078 
C 313.205897 98.148468 296.700126 84.501358 277.373001 76.385329 
C 258.045877 68.269299 236.745265 66.040394 216.156673 69.979627 
C 195.568081 73.918859 176.594715 83.853418 161.62867 98.530787 
C 146.662626 113.208157 136.360452 131.984454 132.021012 152.492426 
C 127.681571 173.000398 129.495232 194.340377 137.233333 213.821893 
C 144.971435 233.303408 158.294513 250.071822 175.52284 262.013029 
C 192.751166 273.954235 213.128949 280.544385 234.087027 280.952613 
L 236.16 174.528 
z
" style="fill: #a6e1e6"/>
   </g>
   <g id="patch_144">
    <path d="M 234.087027 280.952613 
C 247.60529 281.215926 261.050756 278.901169 273.702705 274.132421 
C 286.354654 269.363673 297.982913 262.22769 307.96417 253.106984 
L 236.16 174.528 
z
" style="fill: #6c573c"/>
   </g>
   <g id="patch_145">
    <path d="M 307.96417 253.106984 
C 315.432052 246.282957 321.889147 238.42906 327.140358 229.782592 
C 332.391568 221.136125 336.38347 211.785056 338.995449 202.011921 
L 236.16 174.528 
z
" style="fill: #067ab1"/>
   </g>
   <g id="patch_146">
    <path d="M 338.995449 202.011921 
C 340.192146 197.53429 341.09512 192.983277 341.698606 188.387947 
C 342.302092 183.792616 342.604801 179.162773 342.6048 174.527985 
L 236.16 174.528 
z
" style="fill: #fafafa"/>
   </g>
   <g id="matplotlib.axis_1"/>
   <g id="matplotlib.axis_2"/>
  </g>
 </g>
</svg>
